<?xml version="1.0" encoding="UTF-8" standalone="no"?>
<!-- Created with Inkscape (http://www.inkscape.org/) -->

<svg
   xmlns:dc="http://purl.org/dc/elements/1.1/"
   xmlns:cc="http://creativecommons.org/ns#"
   xmlns:rdf="http://www.w3.org/1999/02/22-rdf-syntax-ns#"
   xmlns:svg="http://www.w3.org/2000/svg"
   xmlns="http://www.w3.org/2000/svg"
   xmlns:sodipodi="http://sodipodi.sourceforge.net/DTD/sodipodi-0.dtd"
   xmlns:inkscape="http://www.inkscape.org/namespaces/inkscape"
   version="1.1"
   id="svg869"
   width="260.63998"
   height="247.01704"
   viewBox="0 0 260.63998 247.01704"
   sodipodi:docname="manbunyellow.svg"
   inkscape:version="0.92.4 (unknown)">
  <metadata
     id="metadata875">
    <rdf:RDF>
      <cc:Work
         rdf:about="">
        <dc:format>image/svg+xml</dc:format>
        <dc:type
           rdf:resource="http://purl.org/dc/dcmitype/StillImage" />
        <dc:title></dc:title>
      </cc:Work>
    </rdf:RDF>
  </metadata>
  <defs
     id="defs873" />
  <sodipodi:namedview
     pagecolor="#ffffff"
     bordercolor="#666666"
     borderopacity="1"
     objecttolerance="10"
     gridtolerance="10"
     guidetolerance="10"
     inkscape:pageopacity="0"
     inkscape:pageshadow="2"
     inkscape:window-width="1600"
     inkscape:window-height="832"
     id="namedview871"
     showgrid="false"
     fit-margin-top="0"
     fit-margin-left="0"
     fit-margin-right="0"
     fit-margin-bottom="0"
     inkscape:zoom="1.7120362"
     inkscape:cx="126.38459"
     inkscape:cy="113.56003"
     inkscape:window-x="0"
     inkscape:window-y="0"
     inkscape:window-maximized="1"
     inkscape:current-layer="svg869" />
  <path
     style="fill:#ffff00;stroke-width:0.31999999"
     d="M 12.95999,246.53928 C 6.83293,245.46082 0,241.96167 0,239.90246 c 0,-0.37321 1.06531,-2.91429 2.36737,-5.64685 4.44854,-9.33593 5.21855,-12.89515 5.64395,-26.0883 0.31272,-9.6985 0.84445,-14.69866 1.9486,-18.32393 0.79345,-2.60514 2.45938,-5.68979 3.69411,-6.84006 0.875,-0.81514 1.07004,-0.84972 5.70596,-1.01156 2.8897,-0.10088 5.54361,-0.37125 6.66846,-0.67936 2.30185,-0.63049 5.01154,-1.77589 5.01154,-2.1184 0,-0.82128 -8.1984,-2.66573 -14.1756,-3.18919 -8.44994,-0.74 -7.97485,-0.62654 -8.69903,-2.0775 -0.50963,-1.02109 -0.63951,-1.92725 -0.64211,-4.48 -0.004,-3.59409 0.44028,-4.81519 2.63295,-7.2422 l 1.16848,-1.29337 2.57765,0.20597 c 9.68374,0.77382 24.3312,6.00242 29.05165,10.37038 2.02697,1.87561 4.75301,5.81041 6.12383,8.83922 l 0.86898,1.92 -0.25339,-3.2 c -0.13938,-1.76 -0.2436,-5.432 -0.23163,-8.16 0.02,-4.54863 0.0905,-5.13579 0.85045,-7.07959 1.98209,-5.06983 4.69307,-8.55248 12.417455,-15.95203 3.16986,-3.03656 6.69121,-6.68066 7.82522,-8.098 5.86726,-7.33317 7.19502,-14.38167 4.47397,-23.75037 -0.40893,-1.408 -0.83494,-2.79587 -0.94667,-3.08414 -0.16456,-0.42455 0.40496,-0.31593 2.99745,0.57169 3.06,1.04768 8.98573,2.39425 12.33506,2.80301 2.17638,0.26562 1.71753,-0.0112 -1.28064,-0.77266 -7.34228,-1.8647 -15.22291,-5.80875 -19.17407,-9.59613 -1.232,-1.18094 -3.752,-3.35378 -5.6,-4.82854 C 55.24371,94.6235 52.56717,90.30581 54.39704,86.64186 c 1.00224,-2.0068 5.53268,-7.97031 10.242955,-13.48303 5.62231,-6.580137 7.28597,-8.778257 7.89517,-10.431507 0.29183,-0.792 0.63052,-1.55651 0.75262,-1.69891 0.12211,-0.1424 3.2809,-0.10825 7.01953,0.0759 23.160365,1.14074 46.597065,-3.423873 68.313855,-13.305057 2.20657,-1.004 3.96369,-1.873724 3.90469,-1.932723 -0.059,-0.059 -1.53345,0.410039 -3.27656,1.042304 -10.63576,3.857814 -22.26185,7.059728 -31.3293,8.628329 -11.08239,1.917168 -23.434485,2.679354 -33.832375,2.087623 -3.87048,-0.220263 -7.70518,-0.496026 -8.52156,-0.612803 l -1.48433,-0.212324 -0.2339,-1.916172 c -0.49937,-4.090983 -3.76713,-8.601018 -7.92319,-10.93528 -0.8822,-0.495488 -1.60415,-0.975782 -1.60433,-1.067318 -1.8e-4,-0.09154 1.52619,-1.015741 3.39193,-2.053786 11.8621,-6.59974 23.3954,-10.5471 36.607755,-12.529276 3.91605,-0.587501 15.56724,-0.809079 20.79999,-0.395562 3.81408,0.301405 1.40951,-0.24008 -3.77896,-0.850982 -8.1782,-0.962922 -19.23608,-0.507946 -27.822945,1.144774 -10.85179,2.088653 -23.83046,6.79208 -32.074105,11.623545 l -2.05149,1.202346 -2.89625,-0.573347 c -1.98152,-0.392269 -4.42589,-0.57776 -7.73949,-0.587315 l -4.84325,-0.01398 0.674,-0.96 c 1.1439,-1.629291 7.90583,-8.246606 10.77249,-10.542103 11.520865,-9.225395 25.890355,-15.424016 40.000005,-17.254937 18.227015,-2.36521 36.565585,1.253804 56.799995,11.209161 1.936,0.952515 3.232,1.499437 2.88,1.215379 -1.13597,-0.916704 -12.03489,-6.104656 -16.32,-7.768419 C 116.80847,7.23888 95.961115,6.593923 75.703805,13.796851 67.967155,16.547782 57.84324,22.234473 51.38131,27.459007 48.18545,30.042895 42.85616,35.24765 40.4168,38.167305 c -1.18539,1.418784 -2.32018,2.48 -2.65195,2.48 -0.31895,0 -2.61301,0.510963 -5.09791,1.135471 -2.48489,0.624512 -4.65951,1.048013 -4.83247,0.941117 -0.17296,-0.106899 -0.31448,-0.958515 -0.31448,-1.89248 0,-3.337331 3.12256,-8.133724 8.89732,-13.6667 C 47.62213,16.42903 61.45894,9.064819 80.181955,3.872323 88.314095,1.617018 90.834375,1.228058 98.399995,1.060682 106.32427,0.88537 110.3322,1.282464 116.56851,2.860768 c 1.97532,0.499917 3.64106,0.864829 3.70165,0.810915 0.0606,-0.05392 -0.73142,-0.487094 -1.76,-0.962621 C 117.48157,2.233555 115.776,1.429479 114.72,0.922243 L 112.8,0 l 2.88,0.177645 c 3.00452,0.185325 5.39661,0.517651 9.43999,1.311478 14.21354,2.790499 29.15465,10.092186 41.92999,20.491088 2.3815,1.938492 5.70431,4.544019 7.38404,5.790057 3.01174,2.234131 3.07496,2.308771 4.56303,5.386726 2.93547,6.071827 7.83399,12.501472 12.99588,17.058016 1.31611,1.161769 2.18011,1.810166 1.92,1.440877 -0.26012,-0.36929 -1.49043,-2.02529 -2.73404,-3.68 -4.56966,-6.080266 -7.1056,-10.936826 -8.9231,-17.088566 -0.0595,-0.201427 1.40222,-0.32 3.94483,-0.32 4.9417,0 5.55913,-0.26448 7.27087,-3.114512 6.87199,-11.441769 17.08477,-17.78318 30.05605,-18.662662 5.2006,-0.352611 12.06498,0.776877 15.99245,2.631453 0.88,0.415542 1.32636,0.677536 0.9919,0.582211 -1.62877,-0.464227 -7.41084,-0.834605 -10.18563,-0.652451 -15.50749,1.01799 -27.6275,9.198515 -31.55141,21.295961 -0.7056,2.175353 -1.46987,6.371657 -1.20813,6.633392 0.0836,0.0836 0.24506,-0.402711 0.35881,-1.080695 1.45885,-8.695849 8.0163,-16.570809 16.75535,-20.121804 5.51616,-2.241418 12.47299,-3.285219 18.08855,-2.714 6.86851,0.698666 12.10372,2.660538 18.43524,6.908521 3.08338,2.068724 5.26587,5.537808 7.44349,11.83145 1.58727,4.587462 1.99183,7.053836 1.99183,12.143135 0,6.340743 -0.90348,10.278451 -3.59767,15.680003 -3.25851,6.53294 -9.98256,12.706567 -17.16353,15.758547 -2.89168,1.22899 -5.86584,2.1926 -4.86924,1.5776 2.31239,-1.42696 5.96735,-4.4784 7.96668,-6.6512 5.10334,-5.546117 7.98357,-12.197237 8.44059,-19.491337 0.2036,-3.249443 -0.41008,-8.024032 -1.33896,-10.417446 -0.26813,-0.690893 -0.42471,-0.896167 -0.34796,-0.456167 0.73544,4.216013 0.89898,6.157949 0.73551,8.734083 -0.46418,7.314867 -3.42693,13.72358 -8.8411,19.124137 -5.72587,5.71148 -13.08836,8.94178 -20.38007,8.94178 -2.59837,0 -2.9226,-0.077 -4.8935,-1.16172 -3.0986,-1.70541 -6.51794,-4.68386 -8.31879,-7.24616 -0.38405,-0.54644 -0.38405,-0.61127 0,-0.4539 3.58971,1.47086 7.67998,1.55575 10.34159,0.21464 4.65056,-2.343287 6.41553,-9.225917 3.77774,-14.731596 -0.55303,-1.154307 -1.31521,-2.378307 -1.69374,-2.72 l -0.68824,-0.621264 0.68387,1.160883 c 0.79937,1.356925 1.62054,4.939098 1.60448,6.99912 l -0.0112,1.44 -0.54227,-0.8 c -1.44426,-2.130704 -3.39448,-3.842777 -5.10729,-4.483619 -4.85253,-1.815568 -11.65905,-0.755821 -15.33063,2.386912 -2.03158,1.738957 -3.0851,4.030507 -3.24243,7.052737 -0.11643,2.23668 0.0949,3.585147 1.65566,10.563967 3.04468,13.61414 3.77618,17.63668 4.18987,23.04 0.1078,1.408 0.27514,3.064 0.37186,3.68 0.2564,1.6328 -0.0841,1.09664 -1.7636,-2.77722 -1.61181,-3.71769 -2.25238,-4.95569 -2.26787,-4.38302 -0.005,0.19787 0.19304,0.9345 0.44088,1.63694 1.09739,3.11034 3.06939,13.74838 3.06939,16.55799 0,1.45837 -0.9049,5.97386 -1.95425,9.7518 -1.50737,5.42698 -5.23996,13.41273 -9.30034,19.89781 -3.12668,4.9938 -8.06125,11.92818 -8.19745,11.51959 -0.0952,-0.28551 0.46683,-3.66957 1.07016,-6.4439 0.48034,-2.20882 -3.19436,5.93619 -4.67845,10.36982 -0.59128,1.76644 -1.54629,3.28402 -4.75969,7.5635 -5.55238,7.39447 -7.79502,11.66597 -8.52646,16.24014 -0.11843,0.7406 -0.3421,1.34654 -0.49706,1.34654 -0.15495,0 -1.78525,-0.35526 -3.62289,-0.78947 -9.78056,-2.311 -14.74925,-7.46299 -16.82963,-17.45053 -0.90494,-4.34449 -0.96872,-12.5189 -0.14729,-18.88 0.79519,-6.15785 0.54248,-13.64216 -0.61048,-18.08 -2.61056,-10.04829 -9.10503,-16.83909 -17.7696,-18.58037 -3.45609,-0.69456 -8.74819,-0.48375 -12.11736,0.4827 -9.87174,2.83168 -18.064555,11.51919 -21.758145,23.07195 -1.41853,4.43684 -1.97929,8.15392 -1.97714,13.10572 0.002,5.16068 0.86626,9.52918 2.71306,13.71733 l 1.1806,2.67732 0.18326,6.28268 c 0.1689,5.79001 0.21663,6.1823 0.60868,5.00267 0.23398,-0.704 0.68034,-2.83865 0.99192,-4.74366 l 0.56649,-3.46366 2.760665,3.94366 c 7.12538,10.1788 10.57017,19.20361 9.63534,25.24313 -1.17517,7.59227 -9.87316,17.09025 -24.720555,26.99421 -4.72111,3.14921 -8.86968,4.49745 -16.41189,5.33365 -1.89667,0.21028 -3.40533,0.4255 -3.35258,0.47825 0.10914,0.10914 5.66406,1.03121 7.12109,1.18204 0.79421,0.0822 -0.11763,0.62789 -5.28,3.1597 -14.447985,7.08582 -27.228505,11.4819 -37.961945,13.05766 -5.25149,0.77097 -12.991,0.83821 -16.91806,0.14699 z M 155.77537,111.16215 c 9.39445,-5.99906 17.51679,-15.84606 21.60692,-26.19483 1.02294,-2.58825 2.6361,-7.80508 2.31385,-7.48282 -0.0706,0.0706 -1.12273,2.07109 -2.33808,4.44557 -5.23077,10.21948 -10.71231,17.63553 -19.21569,25.99725 -2.461,2.42 -4.41089,4.4 -4.33309,4.4 0.0778,0 0.96253,-0.52433 1.96609,-1.16517 z M 118.24,95.49487 c 9.71344,-1.40672 19.17503,-4.84181 27.47111,-9.97355 4.31831,-2.6712 7.86124,-5.45317 14.01481,-11.00464 6.73082,-6.072257 9.38367,-8.271057 12.11407,-10.040727 3.14284,-2.03698 7.04495,-3.90025 9.99428,-4.77229 2.08575,-0.616711 2.40868,-0.784845 1.52572,-0.794397 -1.55987,-0.0169 -5.6256,1.050367 -8.3976,2.204357 -4.85568,2.02142 -9.30412,5.07265 -18.6424,12.787037 -6.57693,5.43322 -12.07301,9.08847 -17.81567,11.84854 -7.21058,3.46561 -14.42447,5.70451 -22.34432,6.93478 -5.58239,0.86716 -16.681885,0.79228 -22.221255,-0.14992 -6.31865,-1.07475 -13.79488,-3.16502 -18.06794,-5.05159 -3.01396,-1.33067 -2.11868,-0.57577 1.53143,1.29131 8.01256,4.09852 16.6665,6.52653 25.797765,7.238 4.06327,0.3166 10.90934,0.0813 15.04,-0.51691 z m 10.07999,-24.18873 c 5.27492,-1.27133 9.95499,-3.693827 19.68,-10.186787 9.76509,-6.519716 14.42507,-8.680718 21.12,-9.794129 l 2.56,-0.425744 -3.84,0.149114 c -7.40024,0.287363 -11.94928,2.254224 -24.96403,10.793689 -10.94603,7.1821 -18.24087,9.900917 -25.27596,9.420467 -1.97662,-0.13499 -2.34124,-0.10065 -1.6,0.15069 2.96802,1.00639 7.87652,0.96364 12.31999,-0.1073 z M 232.87761,47.307813 c -2.82183,-6.088969 -11.50334,-10.430102 -19.43694,-9.719312 -4.00923,0.359197 -6.83974,1.273908 -9.87899,3.192503 -1.66433,1.050646 -1.55351,1.434345 0.1673,0.57928 2.84054,-1.411453 5.16886,-1.82793 10.19101,-1.822906 5.46993,0.0055 7.47626,0.417104 11.29674,2.317741 3.05964,1.522125 5.7179,3.680035 7.08358,5.750262 0.60517,0.917382 1.15995,1.608336 1.23284,1.53545 0.0729,-0.07289 -0.22211,-0.897748 -0.65554,-1.833018 z M 117.12,42.923154 c 7.52086,-0.983702 19.85201,-3.881853 20.95999,-4.926153 0.20409,-0.192372 0.0882,-0.236992 -0.32,-0.123197 -2.41708,0.673821 -21.5864,3.892672 -29.19346,4.902073 -2.32841,0.30896 -4.10669,0.640429 -3.95171,0.736595 0.40363,0.250477 9.28423,-0.168032 12.50518,-0.589318 z M 27.84583,109.62267 c -0.41677,-1.09619 -0.41659,-2.77499 3.2e-4,-3.87179 l 0.32625,-0.85811 -1.3796,0.20689 c -0.75879,0.11378 -2.7021,0.54222 -4.31848,0.95207 l -2.93887,0.74519 -1.20778,-0.79945 c -1.83875,-1.21713 -2.96376,-2.34842 -3.63707,-3.65741 -0.33579,-0.65298 -0.61061,-1.31733 -0.61061,-1.47632 0,-0.33137 4.70323,-1.69642 8.48,-2.46122 3.28548,-0.6653 9.85347,-1.2108 11.56433,-0.96047 4.39839,0.64359 15.04099,6.18875 19.41324,10.11498 l 1.34243,1.20548 -4.46347,-1.41577 c -7.92318,-2.51318 -14.20343,-3.64446 -17.50688,-3.15359 l -1.70965,0.25404 2.41633,0.38718 c 4.13974,0.66332 7.42763,1.70939 11.05118,3.51602 l 3.49249,1.74128 -1.6,-0.15146 c -6.53557,-0.6187 -13.66225,-0.47557 -17.51416,0.35173 -0.73537,0.15794 -0.92589,0.0517 -1.2,-0.66927 z"
     id="path879"
     inkscape:connector-curvature="0" />
</svg>
