<?xml version="1.0" encoding="UTF-8" standalone="no"?>
<svg
   xmlns:dc="http://purl.org/dc/elements/1.1/"
   xmlns:cc="http://creativecommons.org/ns#"
   xmlns:rdf="http://www.w3.org/1999/02/22-rdf-syntax-ns#"
   xmlns:svg="http://www.w3.org/2000/svg"
   xmlns="http://www.w3.org/2000/svg"
   viewBox="0 0 1238.9569 781.81219"
   height="781.81219"
   width="1238.9569"
   id="svg869"
   version="1.1">
  <metadata
     id="metadata875">
    <rdf:RDF>
      <cc:Work
         rdf:about="">
        <dc:format>image/svg+xml</dc:format>
        <dc:type
           rdf:resource="http://purl.org/dc/dcmitype/StillImage" />
        <dc:title></dc:title>
      </cc:Work>
    </rdf:RDF>
  </metadata>
  <defs
     id="defs873" />
  <path
     id="path879"
     d="m 527.97574,781.72758 c 0.01,-0.3588 0.949,-4.9274 2.0928,-10.1524 1.8469,-8.4369 2.1698,-14.5356 2.8856,-54.49998 0.8355,-46.64608 1.7265,-58.00194 6.154,-78.43755 4.1537,-19.17177 9.6685,-32.9993 20.3232,-50.95766 3.0658,-5.16737 5.4222,-9.54725 5.2364,-9.73306 -0.1859,-0.18582 -7.5833,-1.69436 -16.4388,-3.35231 -56.8084,-10.63585 -100.0365,-24.7848 -141.7247,-46.38774 -29.0216,-15.03908 -54.9242,-31.52552 -109.6042,-69.76067 -33.7587,-23.60582 -41.8665,-28.55968 -55.321,-33.80084 -8.5496,-3.33048 -9.8313,-3.55185 -20.6164,-3.56072 -10.7359,-0.009 -11.8833,0.18469 -17.2694,2.9123 -7.5468,3.82192 -16.71414,12.20361 -23.80974,21.7693 -3.1378,4.23008 -10.7522,16.51911 -16.9209,27.30895 -12.8263,22.4348 -19.8091,32.23996 -29.6035,41.56861 -18.2052,17.33958 -41.773897,27.50822 -77.396499,33.3925 -5.225,0.86309 -10.5671,1.8097 -11.8714,2.10359 -2.3442,0.52822 -2.3631,0.46779 -1.6482,-5.26518 0.7549,-6.0545 3.4366,-14.42628 10.4426,-32.59991 4.8341,-12.53983 4.9211,-12.96772 9.5967,-47.19961 5.8211,-42.61784 10.2649,-61.45208 18.5215,-78.5 2.264202,-4.675 5.925102,-10.84845 8.135302,-13.71878 7.7024,-10.00284 24.059397,-20.40522 42.200497,-26.8377 l 7.877,-2.79303 -3.7162,-2.07525 C 108.1332,325.86766 88.250403,304.79497 73.628101,275.5752 c -10.9023,-21.78602 -16.0462,-37.66344 -22.7581,-70.24598 -5.6667,-27.50866 -5.9952,-28.43067 -40.342,-113.254025 L 0,66.075199 6.518801,65.778649 c 10.6079,-0.48256 28.9041,5.25816 59.9438,18.808266 49.406499,21.567975 78.941099,44.495705 98.529099,76.488285 10.0298,16.3815 15.2121,31.13593 26.4784,75.38603 9.75384,38.30927 13.05024,47.91034 19.91484,58.00295 6.1375,9.02358 14.2463,15.00531 24.8674,18.34428 6.4617,2.03138 9.1312,2.25806 25.7103,2.18318 24.7922,-0.11198 39.0693,-2.28448 101.5,-15.4449 15.4,-3.24632 37.675,-7.7648 49.5,-10.04105 43.4201,-8.35815 64.2892,-17.05102 80.6853,-33.60881 7.9329,-8.01108 13.9035,-18.62498 17.0568,-30.32168 2.7638,-10.25169 2.4702,-36.17213 -0.5706,-50.37927 -10.1904,-47.6112 -37.9902,-98.045385 -86.6067,-157.12073 l -9.8755,-11.9999997 15.4053,-2.16518 c 63.6146,-8.94086 97.6194,-3.34416 152.4054,25.0837797 51.3108,26.624681 73.865,45.274269 108.33695,89.5814 33.0427,42.47007 50.8911,54.75748 88.0893,60.64336 12.4898,1.97627 45.1962,2.19058 71.0737,0.46573 20.9384,-1.39563 58.0804,-1.42286 74.6955,-0.0548 58.5936,4.82465 128.86931,24.84896 179.14941,51.04668 82.3231,42.89326 136.1822,108.07015 136.1494,164.75946 -0.01,11.30767 -1.0841,15.90428 -4.7498,20.26068 -4.479,5.32302 -10.1425,7.18464 -23.3656,7.68043 l -11.621,0.43573 -6.879,6.50479 c -24.618,23.27885 -91.7789,72.5233 -140.4095,102.95268 -15.5374,9.7221 -51.7155,30.07102 -74.46941,41.88648 -17.5557,9.11614 -37.6046,17.67675 -57.1099,24.3851 l -15.1098,5.19667 -1.1903,8.66849 c -5.7924,42.1863 -24.2117,86.36036 -48.4019,116.0797 -11.5447,14.18344 -26.5825,27.824 -40.5757,36.8058 -6.0183,3.8629 -23.1316,12.6101 -26.9015,13.7502 -2.0074,0.6072 -2.2246,0.4057 -1.7652,-1.6374 0.2882,-1.2814 1.2298,-6.6048 2.0924,-11.8298 0.8627,-5.225 3.7654,-20.97502 6.4504,-35.00002 10.0889,-52.69836 11.5946,-72.2741 7.8573,-102.15195 l -1.0823,-8.65195 -14.6317,-0.60176 c -16.9181,-0.6958 -45.1405,-3.1985 -56.3927,-5.0008 l -7.7609,-1.24308 -6.3982,12.2579 c -29.7098,56.91951 -86.57155,110.02391 -150.95255,140.97776 -11.7468,5.6477 -37.6366,15.6737 -37.6143,14.5663 z"
     style="fill:#ff6600" />
</svg>
